<mxfile host="Electron" agent="Mozilla/5.0 (Windows NT 10.0; Win64; x64) AppleWebKit/537.36 (KHTML, like Gecko) draw.io/24.7.17 Chrome/128.0.6613.36 Electron/32.0.1 Safari/537.36" version="24.7.17">
  <diagram name="Page-1" id="xXgg5hi8S8FwashrZ2ZM">
    <mxGraphModel dx="4901" dy="2343" grid="1" gridSize="10" guides="1" tooltips="1" connect="1" arrows="1" fold="1" page="1" pageScale="1" pageWidth="850" pageHeight="1100" math="0" shadow="0">
      <root>
        <mxCell id="0" />
        <mxCell id="1" parent="0" />
        <mxCell id="kx1RQyTAltKkXC4JMprE-1" value="Start Process" style="whiteSpace=wrap;strokeWidth=8;strokeColor=#E07A5F;fillColor=#F2CC8F;fontColor=#393C56;fontFamily=Lucida Console;fontSize=24;fontStyle=1;labelBackgroundColor=none;" vertex="1" parent="1">
          <mxGeometry x="1369" y="20" width="153" height="49" as="geometry" />
        </mxCell>
        <mxCell id="kx1RQyTAltKkXC4JMprE-2" value="Are there files to copy?" style="rhombus;strokeWidth=8;whiteSpace=wrap;strokeColor=#E07A5F;fillColor=#F2CC8F;fontColor=#393C56;fontFamily=Lucida Console;fontSize=24;fontStyle=1;labelBackgroundColor=none;" vertex="1" parent="1">
          <mxGeometry x="1310" y="119" width="300" height="150" as="geometry" />
        </mxCell>
        <mxCell id="kx1RQyTAltKkXC4JMprE-3" value="Copy Files from EddyPro7Dir" style="whiteSpace=wrap;strokeWidth=8;strokeColor=#E07A5F;fillColor=#F2CC8F;fontColor=#393C56;fontFamily=Lucida Console;fontSize=24;fontStyle=1;labelBackgroundColor=none;" vertex="1" parent="1">
          <mxGeometry x="110" y="400" width="300" height="150" as="geometry" />
        </mxCell>
        <mxCell id="kx1RQyTAltKkXC4JMprE-4" value="Copy EP7Full to target directory" style="whiteSpace=wrap;strokeWidth=8;strokeColor=#E07A5F;fillColor=#F2CC8F;fontColor=#393C56;fontFamily=Lucida Console;fontSize=24;fontStyle=1;labelBackgroundColor=none;" vertex="1" parent="1">
          <mxGeometry x="-300" y="814.5" width="300" height="150" as="geometry" />
        </mxCell>
        <mxCell id="kx1RQyTAltKkXC4JMprE-5" value="Copy EP7Fluxnet to target directory" style="whiteSpace=wrap;strokeWidth=8;strokeColor=#E07A5F;fillColor=#F2CC8F;fontColor=#393C56;fontFamily=Lucida Console;fontSize=24;fontStyle=1;labelBackgroundColor=none;" vertex="1" parent="1">
          <mxGeometry x="30" y="869.5" width="300" height="150" as="geometry" />
        </mxCell>
        <mxCell id="kx1RQyTAltKkXC4JMprE-6" value="Copy EP7QC to target directory" style="whiteSpace=wrap;strokeWidth=8;strokeColor=#E07A5F;fillColor=#F2CC8F;fontColor=#393C56;fontFamily=Lucida Console;fontSize=24;fontStyle=1;labelBackgroundColor=none;" vertex="1" parent="1">
          <mxGeometry x="370" y="865.5" width="300" height="150" as="geometry" />
        </mxCell>
        <mxCell id="kx1RQyTAltKkXC4JMprE-7" value="Next step: Renaming Files?" style="rhombus;strokeWidth=8;whiteSpace=wrap;strokeColor=#E07A5F;fillColor=#F2CC8F;fontColor=#393C56;fontFamily=Lucida Console;fontSize=24;fontStyle=1;labelBackgroundColor=none;" vertex="1" parent="1">
          <mxGeometry x="933" y="980" width="300" height="150" as="geometry" />
        </mxCell>
        <mxCell id="kx1RQyTAltKkXC4JMprE-8" value="End Process" style="whiteSpace=wrap;strokeWidth=8;strokeColor=#E07A5F;fillColor=#F2CC8F;fontColor=#393C56;fontFamily=Lucida Console;fontSize=24;fontStyle=1;labelBackgroundColor=none;" vertex="1" parent="1">
          <mxGeometry x="1380" y="520" width="300" height="150" as="geometry" />
        </mxCell>
        <mxCell id="kx1RQyTAltKkXC4JMprE-9" value="Renaming Files from Source to Destination" style="whiteSpace=wrap;strokeWidth=8;strokeColor=#E07A5F;fillColor=#F2CC8F;fontColor=#393C56;fontFamily=Lucida Console;fontSize=24;fontStyle=1;labelBackgroundColor=none;" vertex="1" parent="1">
          <mxGeometry x="633" y="1240" width="300" height="150" as="geometry" />
        </mxCell>
        <mxCell id="kx1RQyTAltKkXC4JMprE-10" value="Move Processed Files from NowProcDir to ArchiveDir" style="whiteSpace=wrap;strokeWidth=8;strokeColor=#E07A5F;fillColor=#F2CC8F;fontColor=#393C56;fontFamily=Lucida Console;fontSize=24;fontStyle=1;labelBackgroundColor=none;" vertex="1" parent="1">
          <mxGeometry x="-460" y="1680" width="300" height="150" as="geometry" />
        </mxCell>
        <mxCell id="kx1RQyTAltKkXC4JMprE-11" value="Rename Binned Cospectra in eddypro_binned_cospectra subdir" style="whiteSpace=wrap;strokeWidth=8;strokeColor=#E07A5F;fillColor=#F2CC8F;fontColor=#393C56;fontFamily=Lucida Console;fontSize=24;fontStyle=1;labelBackgroundColor=none;" vertex="1" parent="1">
          <mxGeometry x="-50" y="1630" width="300" height="150" as="geometry" />
        </mxCell>
        <mxCell id="kx1RQyTAltKkXC4JMprE-12" value="Rename Ogives in eddypro_binned_ogives subdir" style="whiteSpace=wrap;strokeWidth=8;strokeColor=#E07A5F;fillColor=#F2CC8F;fontColor=#393C56;fontFamily=Lucida Console;fontSize=24;fontStyle=1;labelBackgroundColor=none;" vertex="1" parent="1">
          <mxGeometry x="333" y="1620" width="300" height="150" as="geometry" />
        </mxCell>
        <mxCell id="kx1RQyTAltKkXC4JMprE-13" value="Rename Full Cospectra in eddypro_full_cospectra subdir" style="whiteSpace=wrap;strokeWidth=8;strokeColor=#E07A5F;fillColor=#F2CC8F;fontColor=#393C56;fontFamily=Lucida Console;fontSize=24;fontStyle=1;labelBackgroundColor=none;" vertex="1" parent="1">
          <mxGeometry x="690" y="1610" width="300" height="150" as="geometry" />
        </mxCell>
        <mxCell id="kx1RQyTAltKkXC4JMprE-14" value="Rename Spectral Analysis in eddypro_spectral_analysis subdir" style="whiteSpace=wrap;strokeWidth=8;strokeColor=#E07A5F;fillColor=#F2CC8F;fontColor=#393C56;fontFamily=Lucida Console;fontSize=24;fontStyle=1;labelBackgroundColor=none;" vertex="1" parent="1">
          <mxGeometry x="1000" y="1600" width="300" height="150" as="geometry" />
        </mxCell>
        <mxCell id="kx1RQyTAltKkXC4JMprE-15" value="Rename Stats in eddypro_stats subdir" style="whiteSpace=wrap;strokeWidth=8;strokeColor=#E07A5F;fillColor=#F2CC8F;fontColor=#393C56;fontFamily=Lucida Console;fontSize=24;fontStyle=1;labelBackgroundColor=none;" vertex="1" parent="1">
          <mxGeometry x="1440" y="1580" width="300" height="150" as="geometry" />
        </mxCell>
        <mxCell id="kx1RQyTAltKkXC4JMprE-16" value="Rename User Stats in eddypro_user_stats subdir" style="whiteSpace=wrap;strokeWidth=8;strokeColor=#E07A5F;fillColor=#F2CC8F;fontColor=#393C56;fontFamily=Lucida Console;fontSize=24;fontStyle=1;labelBackgroundColor=none;" vertex="1" parent="1">
          <mxGeometry x="1865" y="1640" width="300" height="150" as="geometry" />
        </mxCell>
        <mxCell id="kx1RQyTAltKkXC4JMprE-17" value="Are all files processed?" style="rhombus;strokeWidth=8;whiteSpace=wrap;strokeColor=#E07A5F;fillColor=#F2CC8F;fontColor=#393C56;fontFamily=Lucida Console;fontSize=24;fontStyle=1;labelBackgroundColor=none;" vertex="1" parent="1">
          <mxGeometry x="1100" y="2010" width="300" height="150" as="geometry" />
        </mxCell>
        <mxCell id="kx1RQyTAltKkXC4JMprE-18" value="End Process" style="whiteSpace=wrap;strokeWidth=8;strokeColor=#E07A5F;fillColor=#F2CC8F;fontColor=#393C56;fontFamily=Lucida Console;fontSize=24;fontStyle=1;labelBackgroundColor=none;" vertex="1" parent="1">
          <mxGeometry x="1100" y="2690" width="300" height="150" as="geometry" />
        </mxCell>
        <mxCell id="kx1RQyTAltKkXC4JMprE-19" value="" style="startArrow=none;endArrow=block;exitX=0.5;exitY=1;entryX=0.5;entryY=0;rounded=0;strokeColor=#E07A5F;fillColor=#F2CC8F;edgeStyle=orthogonalEdgeStyle;strokeWidth=8;fontFamily=Lucida Console;fontSize=24;fontStyle=1;labelBackgroundColor=none;fontColor=default;" edge="1" parent="1" source="kx1RQyTAltKkXC4JMprE-1" target="kx1RQyTAltKkXC4JMprE-2">
          <mxGeometry relative="1" as="geometry" />
        </mxCell>
        <mxCell id="kx1RQyTAltKkXC4JMprE-20" value="Yes" style="startArrow=none;endArrow=block;entryX=0.5;entryY=0;rounded=0;strokeColor=#E07A5F;fillColor=#F2CC8F;edgeStyle=orthogonalEdgeStyle;strokeWidth=8;fontFamily=Lucida Console;fontSize=24;fontStyle=1;labelBackgroundColor=none;fontColor=default;exitX=0;exitY=0.5;exitDx=0;exitDy=0;" edge="1" parent="1" source="kx1RQyTAltKkXC4JMprE-2" target="kx1RQyTAltKkXC4JMprE-3">
          <mxGeometry relative="1" as="geometry">
            <mxPoint x="1300" y="194" as="sourcePoint" />
          </mxGeometry>
        </mxCell>
        <mxCell id="kx1RQyTAltKkXC4JMprE-21" value="" style="startArrow=none;endArrow=block;exitX=0.5;exitY=1;entryX=0.5;entryY=0;rounded=0;strokeColor=#E07A5F;fillColor=#F2CC8F;edgeStyle=orthogonalEdgeStyle;strokeWidth=8;fontFamily=Lucida Console;fontSize=24;fontStyle=1;labelBackgroundColor=none;fontColor=default;exitDx=0;exitDy=0;" edge="1" parent="1" source="kx1RQyTAltKkXC4JMprE-3" target="kx1RQyTAltKkXC4JMprE-4">
          <mxGeometry relative="1" as="geometry">
            <mxPoint x="210" y="740" as="sourcePoint" />
          </mxGeometry>
        </mxCell>
        <mxCell id="kx1RQyTAltKkXC4JMprE-22" value="" style="startArrow=none;endArrow=block;exitX=0.5;exitY=1;entryX=0.5;entryY=0;rounded=0;strokeColor=#E07A5F;fillColor=#F2CC8F;edgeStyle=orthogonalEdgeStyle;strokeWidth=8;fontFamily=Lucida Console;fontSize=24;fontStyle=1;labelBackgroundColor=none;fontColor=default;exitDx=0;exitDy=0;" edge="1" parent="1" source="kx1RQyTAltKkXC4JMprE-3" target="kx1RQyTAltKkXC4JMprE-5">
          <mxGeometry relative="1" as="geometry">
            <mxPoint x="219" y="789.5" as="sourcePoint" />
          </mxGeometry>
        </mxCell>
        <mxCell id="kx1RQyTAltKkXC4JMprE-23" value="" style="startArrow=none;endArrow=block;exitX=0.5;exitY=1;entryX=0.5;entryY=0;rounded=0;strokeColor=#E07A5F;fillColor=#F2CC8F;edgeStyle=orthogonalEdgeStyle;strokeWidth=8;fontFamily=Lucida Console;fontSize=24;fontStyle=1;labelBackgroundColor=none;fontColor=default;exitDx=0;exitDy=0;" edge="1" parent="1" source="kx1RQyTAltKkXC4JMprE-3" target="kx1RQyTAltKkXC4JMprE-6">
          <mxGeometry relative="1" as="geometry">
            <mxPoint x="501" y="789.5" as="sourcePoint" />
          </mxGeometry>
        </mxCell>
        <mxCell id="kx1RQyTAltKkXC4JMprE-24" value="" style="startArrow=none;endArrow=block;exitX=1;exitY=0.68;entryX=0.5;entryY=0;rounded=0;strokeColor=#E07A5F;fillColor=#F2CC8F;edgeStyle=orthogonalEdgeStyle;strokeWidth=8;fontFamily=Lucida Console;fontSize=24;fontStyle=1;labelBackgroundColor=none;fontColor=default;" edge="1" parent="1" source="kx1RQyTAltKkXC4JMprE-3" target="kx1RQyTAltKkXC4JMprE-7">
          <mxGeometry relative="1" as="geometry" />
        </mxCell>
        <mxCell id="kx1RQyTAltKkXC4JMprE-25" value="No" style="startArrow=none;endArrow=block;exitX=0.5;exitY=1;entryX=0.5;entryY=0;rounded=0;strokeColor=#E07A5F;fillColor=#F2CC8F;edgeStyle=orthogonalEdgeStyle;strokeWidth=8;fontFamily=Lucida Console;fontSize=24;fontStyle=1;labelBackgroundColor=none;fontColor=default;exitDx=0;exitDy=0;" edge="1" parent="1" source="kx1RQyTAltKkXC4JMprE-2" target="kx1RQyTAltKkXC4JMprE-8">
          <mxGeometry relative="1" as="geometry" />
        </mxCell>
        <mxCell id="kx1RQyTAltKkXC4JMprE-26" value="Yes" style="startArrow=none;endArrow=block;exitX=0.5;exitY=1;entryX=0.5;entryY=0;rounded=0;strokeColor=#E07A5F;fillColor=#F2CC8F;edgeStyle=orthogonalEdgeStyle;strokeWidth=8;fontFamily=Lucida Console;fontSize=24;fontStyle=1;labelBackgroundColor=none;fontColor=default;" edge="1" parent="1" source="kx1RQyTAltKkXC4JMprE-7" target="kx1RQyTAltKkXC4JMprE-9">
          <mxGeometry relative="1" as="geometry" />
        </mxCell>
        <mxCell id="kx1RQyTAltKkXC4JMprE-27" value="" style="startArrow=none;endArrow=block;exitX=0;exitY=0.62;entryX=0.5;entryY=0;rounded=0;strokeColor=#E07A5F;fillColor=#F2CC8F;edgeStyle=orthogonalEdgeStyle;strokeWidth=8;fontFamily=Lucida Console;fontSize=24;fontStyle=1;labelBackgroundColor=none;fontColor=default;" edge="1" parent="1" source="kx1RQyTAltKkXC4JMprE-9" target="kx1RQyTAltKkXC4JMprE-10">
          <mxGeometry relative="1" as="geometry" />
        </mxCell>
        <mxCell id="kx1RQyTAltKkXC4JMprE-28" value="" style="startArrow=none;endArrow=block;exitX=0;exitY=0.69;entryX=0.5;entryY=0;rounded=0;strokeColor=#E07A5F;fillColor=#F2CC8F;edgeStyle=orthogonalEdgeStyle;strokeWidth=8;fontFamily=Lucida Console;fontSize=24;fontStyle=1;labelBackgroundColor=none;fontColor=default;" edge="1" parent="1" source="kx1RQyTAltKkXC4JMprE-9" target="kx1RQyTAltKkXC4JMprE-11">
          <mxGeometry relative="1" as="geometry" />
        </mxCell>
        <mxCell id="kx1RQyTAltKkXC4JMprE-29" value="" style="startArrow=none;endArrow=block;exitX=0;exitY=0.89;entryX=0.5;entryY=0;rounded=0;strokeColor=#E07A5F;fillColor=#F2CC8F;edgeStyle=orthogonalEdgeStyle;strokeWidth=8;fontFamily=Lucida Console;fontSize=24;fontStyle=1;labelBackgroundColor=none;fontColor=default;" edge="1" parent="1" source="kx1RQyTAltKkXC4JMprE-9" target="kx1RQyTAltKkXC4JMprE-12">
          <mxGeometry relative="1" as="geometry" />
        </mxCell>
        <mxCell id="kx1RQyTAltKkXC4JMprE-30" value="" style="startArrow=none;endArrow=block;exitX=0.5;exitY=0.99;entryX=0.5;entryY=0;rounded=0;strokeColor=#E07A5F;fillColor=#F2CC8F;edgeStyle=orthogonalEdgeStyle;strokeWidth=8;fontFamily=Lucida Console;fontSize=24;fontStyle=1;labelBackgroundColor=none;fontColor=default;" edge="1" parent="1" source="kx1RQyTAltKkXC4JMprE-9" target="kx1RQyTAltKkXC4JMprE-13">
          <mxGeometry relative="1" as="geometry" />
        </mxCell>
        <mxCell id="kx1RQyTAltKkXC4JMprE-31" value="" style="startArrow=none;endArrow=block;exitX=1;exitY=0.87;entryX=0.5;entryY=0;rounded=0;strokeColor=#E07A5F;fillColor=#F2CC8F;edgeStyle=orthogonalEdgeStyle;strokeWidth=8;fontFamily=Lucida Console;fontSize=24;fontStyle=1;labelBackgroundColor=none;fontColor=default;" edge="1" parent="1" source="kx1RQyTAltKkXC4JMprE-9" target="kx1RQyTAltKkXC4JMprE-14">
          <mxGeometry relative="1" as="geometry" />
        </mxCell>
        <mxCell id="kx1RQyTAltKkXC4JMprE-32" value="" style="startArrow=none;endArrow=block;exitX=1;exitY=0.69;entryX=0.5;entryY=0;rounded=0;strokeColor=#E07A5F;fillColor=#F2CC8F;edgeStyle=orthogonalEdgeStyle;strokeWidth=8;fontFamily=Lucida Console;fontSize=24;fontStyle=1;labelBackgroundColor=none;fontColor=default;" edge="1" parent="1" source="kx1RQyTAltKkXC4JMprE-9" target="kx1RQyTAltKkXC4JMprE-15">
          <mxGeometry relative="1" as="geometry" />
        </mxCell>
        <mxCell id="kx1RQyTAltKkXC4JMprE-33" value="" style="startArrow=none;endArrow=block;exitX=1;exitY=0.62;entryX=0.5;entryY=0;rounded=0;strokeColor=#E07A5F;fillColor=#F2CC8F;edgeStyle=orthogonalEdgeStyle;strokeWidth=8;fontFamily=Lucida Console;fontSize=24;fontStyle=1;labelBackgroundColor=none;fontColor=default;" edge="1" parent="1" source="kx1RQyTAltKkXC4JMprE-9" target="kx1RQyTAltKkXC4JMprE-16">
          <mxGeometry relative="1" as="geometry" />
        </mxCell>
        <mxCell id="kx1RQyTAltKkXC4JMprE-34" value="" style="startArrow=none;endArrow=block;exitX=0.5;exitY=0.99;entryX=0;entryY=0.45;rounded=0;strokeColor=#E07A5F;fillColor=#F2CC8F;edgeStyle=orthogonalEdgeStyle;strokeWidth=8;fontFamily=Lucida Console;fontSize=24;fontStyle=1;labelBackgroundColor=none;fontColor=default;" edge="1" parent="1" source="kx1RQyTAltKkXC4JMprE-10" target="kx1RQyTAltKkXC4JMprE-17">
          <mxGeometry relative="1" as="geometry" />
        </mxCell>
        <mxCell id="kx1RQyTAltKkXC4JMprE-35" value="" style="startArrow=none;endArrow=block;exitX=0.5;exitY=1;entryX=0;entryY=0.44;rounded=0;strokeColor=#E07A5F;fillColor=#F2CC8F;edgeStyle=orthogonalEdgeStyle;strokeWidth=8;fontFamily=Lucida Console;fontSize=24;fontStyle=1;labelBackgroundColor=none;fontColor=default;" edge="1" parent="1" source="kx1RQyTAltKkXC4JMprE-11" target="kx1RQyTAltKkXC4JMprE-17">
          <mxGeometry relative="1" as="geometry" />
        </mxCell>
        <mxCell id="kx1RQyTAltKkXC4JMprE-36" value="" style="startArrow=none;endArrow=block;exitX=0.5;exitY=1;entryX=0;entryY=0.42;rounded=0;strokeColor=#E07A5F;fillColor=#F2CC8F;edgeStyle=orthogonalEdgeStyle;strokeWidth=8;fontFamily=Lucida Console;fontSize=24;fontStyle=1;labelBackgroundColor=none;fontColor=default;" edge="1" parent="1" source="kx1RQyTAltKkXC4JMprE-12" target="kx1RQyTAltKkXC4JMprE-17">
          <mxGeometry relative="1" as="geometry" />
        </mxCell>
        <mxCell id="kx1RQyTAltKkXC4JMprE-37" value="" style="startArrow=none;endArrow=block;exitX=0.5;exitY=1;entryX=0;entryY=0.37;rounded=0;strokeColor=#E07A5F;fillColor=#F2CC8F;edgeStyle=orthogonalEdgeStyle;strokeWidth=8;fontFamily=Lucida Console;fontSize=24;fontStyle=1;labelBackgroundColor=none;fontColor=default;" edge="1" parent="1" source="kx1RQyTAltKkXC4JMprE-13" target="kx1RQyTAltKkXC4JMprE-17">
          <mxGeometry relative="1" as="geometry" />
        </mxCell>
        <mxCell id="kx1RQyTAltKkXC4JMprE-38" value="" style="startArrow=none;endArrow=block;exitX=0.5;exitY=1;entryX=0;entryY=0.16;rounded=0;strokeColor=#E07A5F;fillColor=#F2CC8F;edgeStyle=orthogonalEdgeStyle;strokeWidth=8;fontFamily=Lucida Console;fontSize=24;fontStyle=1;labelBackgroundColor=none;fontColor=default;" edge="1" parent="1" source="kx1RQyTAltKkXC4JMprE-14" target="kx1RQyTAltKkXC4JMprE-17">
          <mxGeometry relative="1" as="geometry" />
        </mxCell>
        <mxCell id="kx1RQyTAltKkXC4JMprE-39" value="" style="startArrow=none;endArrow=block;exitX=0.5;exitY=0.99;entryX=0.84;entryY=0;rounded=0;strokeColor=#E07A5F;fillColor=#F2CC8F;edgeStyle=orthogonalEdgeStyle;strokeWidth=8;fontFamily=Lucida Console;fontSize=24;fontStyle=1;labelBackgroundColor=none;fontColor=default;" edge="1" parent="1" source="kx1RQyTAltKkXC4JMprE-15" target="kx1RQyTAltKkXC4JMprE-17">
          <mxGeometry relative="1" as="geometry" />
        </mxCell>
        <mxCell id="kx1RQyTAltKkXC4JMprE-40" value="" style="startArrow=none;endArrow=block;exitX=0.5;exitY=0.99;entryX=1;entryY=0.32;rounded=0;strokeColor=#E07A5F;fillColor=#F2CC8F;edgeStyle=orthogonalEdgeStyle;strokeWidth=8;fontFamily=Lucida Console;fontSize=24;fontStyle=1;labelBackgroundColor=none;fontColor=default;" edge="1" parent="1" source="kx1RQyTAltKkXC4JMprE-16" target="kx1RQyTAltKkXC4JMprE-17">
          <mxGeometry relative="1" as="geometry" />
        </mxCell>
        <mxCell id="kx1RQyTAltKkXC4JMprE-41" value="Yes" style="startArrow=none;endArrow=block;exitX=0.5;exitY=1;entryX=0.5;entryY=0.01;rounded=0;strokeColor=#E07A5F;fillColor=#F2CC8F;edgeStyle=orthogonalEdgeStyle;strokeWidth=8;fontFamily=Lucida Console;fontSize=24;fontStyle=1;labelBackgroundColor=none;fontColor=default;" edge="1" parent="1" source="kx1RQyTAltKkXC4JMprE-17" target="kx1RQyTAltKkXC4JMprE-18">
          <mxGeometry relative="1" as="geometry" />
        </mxCell>
        <mxCell id="kx1RQyTAltKkXC4JMprE-42" value="No" style="startArrow=none;endArrow=block;exitX=1;exitY=0.5;entryX=1;entryY=0.5;rounded=0;strokeColor=#E07A5F;fillColor=#F2CC8F;edgeStyle=orthogonalEdgeStyle;strokeWidth=8;fontFamily=Lucida Console;fontSize=24;fontStyle=1;labelBackgroundColor=none;fontColor=default;entryDx=0;entryDy=0;exitDx=0;exitDy=0;" edge="1" parent="1" source="kx1RQyTAltKkXC4JMprE-17" target="kx1RQyTAltKkXC4JMprE-2">
          <mxGeometry relative="1" as="geometry">
            <Array as="points">
              <mxPoint x="2470" y="1665" />
              <mxPoint x="2470" y="194" />
            </Array>
          </mxGeometry>
        </mxCell>
      </root>
    </mxGraphModel>
  </diagram>
</mxfile>
